# xmcd
#
# Track frame offsets: 
#        150
#        18663
#        38510
#        56763
#        77719
#        90875
#        107899
#        125034
#        144485
#        161669
#        179971
#
# Disc length: 2578 seconds
#
# Revision: 0
# Processed by: cddbd v1.5.2PL0 Copyright (c) Steve Scherf et al.
# Submitted via: ExactAudioCopyFreeDBPlugin 1.0
#
DISCID=940a100b
DTITLE=Anita Cochran - Anita
DYEAR=1999
DGENRE=Country
TTITLE0=Good Times
TTITLE1=Let The Guitar Do The Talkin'
TTITLE2=Last Kiss
TTITLE3=Thanks For Reading My Mind
TTITLE4=That's Not What I Said
TTITLE5=For Crying Out Loud
TTITLE6=Living My Life Now
TTITLE7=You With Me
TTITLE8=God Created Woman
TTITLE9=Every Time It Rains
TTITLE10=What I Leave Behind
EXTD=
EXTT0=
EXTT1=
EXTT2=
EXTT3=
EXTT4=
EXTT5=
EXTT6=
EXTT7=
EXTT8=
EXTT9=
EXTT10=
PLAYORDER=
